<?xml version="1.0" standalone="no"?>
<!DOCTYPE svg PUBLIC "-//W3C//DTD SVG 20010904//EN"
 "http://www.w3.org/TR/2001/REC-SVG-20010904/DTD/svg10.dtd">
<svg version="1.0" xmlns="http://www.w3.org/2000/svg"
 width="512.000000pt" height="512.000000pt" viewBox="0 0 512.000000 512.000000"
 preserveAspectRatio="xMidYMid meet">
<metadata>
Created by potrace 1.14, written by Peter Selinger 2001-2017
</metadata>
<g transform="translate(0.000000,512.000000) scale(0.100000,-0.100000)"
fill="#000000" stroke="none">
<path d="M2369 4976 c-2 -2 -36 -6 -74 -10 -79 -7 -97 -10 -210 -32 -389 -77
-778 -264 -1090 -524 -69 -58 -266 -261 -324 -335 -258 -326 -439 -729 -497
-1105 -3 -19 -7 -40 -9 -47 -19 -58 -28 -489 -12 -626 61 -549 303 -1052 692
-1443 152 -153 265 -243 439 -351 254 -158 586 -285 853 -327 16 -2 62 -10
103 -17 81 -14 485 -19 580 -7 375 46 693 155 999 342 534 325 929 857 1085
1461 58 226 71 345 70 630 0 219 -9 303 -50 499 -58 279 -195 592 -376 859
-168 247 -441 506 -708 672 -234 144 -552 273 -782 315 -29 6 -64 12 -78 15
-14 3 -45 8 -70 11 -25 4 -58 9 -75 11 -38 6 -461 14 -466 9z m346 -140 c55
-3 109 -8 120 -10 11 -2 41 -6 66 -10 650 -94 1243 -486 1598 -1054 50 -80
151 -279 179 -352 71 -183 133 -430 147 -580 4 -36 8 -76 11 -90 7 -40 6 -288
-1 -370 -4 -41 -13 -115 -22 -165 -8 -49 -17 -103 -20 -118 -9 -55 -64 -241
-100 -336 -158 -425 -478 -831 -853 -1080 -335 -224 -663 -340 -1085 -386
-102 -11 -405 -5 -480 10 -11 2 -42 7 -70 10 -125 16 -334 74 -495 137 -186
73 -419 210 -585 343 -422 338 -730 865 -815 1395 -7 41 -14 83 -16 92 -5 31
-16 200 -17 273 0 67 11 266 17 303 2 9 7 40 10 67 19 129 78 344 134 485 249
626 749 1101 1392 1322 93 31 255 74 316 83 22 3 64 10 94 15 30 5 96 12 145
16 50 3 91 7 92 8 3 2 137 -2 238 -8z"/>
<path d="M1874 4229 c-329 -40 -599 -278 -680 -599 -14 -55 -19 -111 -19 -212
0 -182 -6 -176 175 -182 226 -8 368 -47 518 -143 66 -41 178 -155 206 -207 19
-35 18 -36 -2 -83 -24 -57 -52 -161 -52 -196 0 -18 -8 -28 -29 -37 -53 -21
-201 -116 -281 -180 -216 -169 -368 -396 -398 -590 -9 -59 -9 -244 0 -295 74
-406 431 -704 828 -690 172 6 384 87 498 188 28 26 28 63 -1 107 -182 269
-225 592 -112 838 33 71 34 72 72 73 56 1 90 8 152 30 31 11 58 21 61 22 3 1
66 -29 140 -65 74 -37 168 -78 208 -92 221 -78 469 -89 657 -29 266 85 523
343 591 594 26 97 24 254 -5 349 -54 179 -183 354 -356 484 -86 66 -175 116
-202 116 -23 0 -73 -52 -73 -76 0 -24 -60 -136 -99 -184 -121 -151 -309 -256
-559 -314 l-62 -14 -44 56 c-39 50 -93 102 -131 125 -10 5 -13 36 -13 110 3
352 -92 653 -266 844 -92 103 -251 195 -401 233 -86 23 -223 31 -321 19z m310
-158 c120 -36 221 -96 298 -179 156 -167 236 -413 242 -747 1 -38 0 -40 -29
-38 -168 10 -186 9 -256 -8 -79 -20 -126 -42 -202 -95 -26 -19 -49 -34 -51
-34 -2 0 -15 17 -29 38 -144 211 -448 357 -766 365 l-83 2 5 95 c15 269 170
484 417 579 41 16 95 32 120 36 25 4 46 8 48 10 12 11 227 -6 286 -24z m1871
-948 c117 -112 180 -209 213 -329 35 -125 22 -266 -33 -373 -102 -200 -320
-375 -520 -417 -176 -38 -350 -19 -555 61 -90 34 -210 92 -210 100 0 3 20 29
44 59 86 106 126 227 120 367 -2 46 -5 92 -6 103 -2 10 4 20 12 22 8 2 31 6
50 10 63 11 213 66 295 106 184 92 323 225 394 375 l23 51 57 -39 c31 -21 83
-64 116 -96z m-1359 -166 c172 -62 282 -214 282 -391 0 -157 -86 -292 -234
-367 -65 -32 -73 -34 -173 -34 -98 0 -111 2 -173 32 -88 41 -160 113 -201 200
-29 61 -32 77 -32 163 0 110 12 157 57 225 60 91 144 152 248 180 56 16 172
11 226 -8z m-656 -540 c0 -25 68 -153 105 -197 51 -61 130 -121 204 -154 49
-22 61 -31 56 -44 -61 -150 -81 -247 -79 -377 2 -170 43 -324 129 -495 19 -38
35 -74 35 -79 0 -14 -140 -78 -212 -97 -335 -88 -685 110 -802 453 -120 354
45 690 475 962 67 43 89 50 89 28z"/>
</g>
</svg>
